<svg xmlns="http://www.w3.org/2000/svg" viewBox="0 0 120 120" width="120" height="120">

    <!-- POS Terminal -->
    <rect x="20" y="10" width="80" height="100" rx="10" ry="10" fill="#2E3A87" />
    <rect x="25" y="15" width="70" height="35" rx="6" ry="6" fill="#F1F3F4" />

    <!-- POS Screen Lines -->
    <rect x="30" y="20" width="60" height="5" rx="2" ry="2" fill="#E2E5E8" />
    <rect x="30" y="28" width="45" height="3" rx="1.5" ry="1.5" fill="#D1D6DB" />
    <rect x="30" y="33" width="50" height="3" rx="1.5" ry="1.5" fill="#D1D6DB" />

    <!-- POS Button -->
    <rect x="35" y="60" width="50" height="8" rx="4" ry="4" fill="#3749BB" />
    <rect x="40" y="61" width="40" height="6" rx="3" ry="3" fill="#2E3A87" />

    <!-- Keypad -->
    <rect x="35" y="75" width="50" height="20" rx="4" ry="4" fill="#3749BB" />
    <circle cx="45" cy="82" r="3" fill="#2E3A87" />
    <circle cx="60" cy="82" r="3" fill="#2E3A87" />
    <circle cx="75" cy="82" r="3" fill="#2E3A87" />
    <circle cx="45" cy="90" r="3" fill="#2E3A87" />
    <circle cx="60" cy="90" r="3" fill="#2E3A87" />
    <circle cx="75" cy="90" r="3" fill="#2E3A87" />

    <!-- Card (with shadow for a 3D effect) -->
    <rect x="20" y="65" width="80" height="45" rx="8" ry="8" fill="#FF6F61" transform="rotate(-10 60 60)" />
    <rect x="25" y="70" width="70" height="35" rx="6" ry="6" fill="#FF6F61" transform="rotate(-10 60 60)" />

    <!-- Card Shadow -->
    <rect x="22" y="68" width="80" height="45" rx="8" ry="8" fill="rgba(0, 0, 0, 0.2)" transform="rotate(-10 60 60)" />

    <!-- Card Details -->
    <rect x="40" y="80" width="40" height="5" fill="#ffffff" transform="rotate(-10 60 60)" />
    <rect x="40" y="88" width="25" height="3" fill="#ffffff" transform="rotate(-10 60 60)" />
    <rect x="40" y="93" width="30" height="3" fill="#ffffff" transform="rotate(-10 60 60)" />

    <!-- Card Chip -->
    <rect x="70" y="83" width="7" height="12" rx="2" ry="2" fill="#D4AF37" transform="rotate(-10 60 60)" />

</svg>